<svg xmlns="http://www.w3.org/2000/svg" width="288" height="288" viewBox="0 0 288 288" fill="#333333">
	<svg x="0" y="0">
		<path d="M24 4C12.95 4 4 12.95 4 24s8.95 20 20 20 20-8.95 20-20S35.05 4 24 4zm0 6c3.31 0 6 2.69 6 6 0 3.32-2.69 6-6 6s-6-2.68-6-6c0-3.31 2.69-6 6-6zm0 28.4c-5.01 0-9.41-2.56-12-6.44.05-3.97 8.01-6.16 12-6.16s11.94 2.19 12 6.16c-2.59 3.88-6.99 6.44-12 6.44z"/>
	</svg>
	<svg x="48" y="0">
		<path d="M32 22c3.31 0 5.98-2.69 5.98-6s-2.67-6-5.98-6c-3.31 0-6 2.69-6 6s2.69 6 6 6zm-16 0c3.31 0 5.98-2.69 5.98-6s-2.67-6-5.98-6c-3.31 0-6 2.69-6 6s2.69 6 6 6zm0 4c-4.67 0-14 2.34-14 7v5h28v-5c0-4.66-9.33-7-14-7zm16 0c-.58 0-1.23.04-1.93.11C32.39 27.78 34 30.03 34 33v5h12v-5c0-4.66-9.33-7-14-7z"/>
	</svg>
	<svg x="96" y="0">
		<path d="M20 40V28h8v12h10V24h6L24 6 4 24h6v16z"/>
	</svg>
	<svg x="0" y="48">
		<path d="M40 22H15.66l11.17-11.17L24 8 8 24l16 16 2.83-2.83L15.66 26H40v-4z"/>
	</svg>
	<svg x="48" y="48">
		<path d="M24 8l-2.83 2.83L32.34 22H8v4h24.34L21.17 37.17 24 40l16-16z"/>
	</svg>
	<svg x="96" y="48">
		<path d="M6 26h4v-4H6v4zm0 8h4v-4H6v4zm0-16h4v-4H6v4zm8 8h28v-4H14v4zm0 8h28v-4H14v4zm0-20v4h28v-4H14z"/>
	</svg>
	<svg x="0" y="96">
		<path d="M8 24l2.83 2.83L22 15.66V40h4V15.66l11.17 11.17L40 24 24 8 8 24z"/>
	</svg>
	<svg x="48" y="96">
		<path d="M40 24l-2.82-2.82L26 32.34V8h-4v24.34L10.84 21.16 8 24l16 16 16-16z"/>
	</svg>
	<svg x="96" y="96">
		<path d="M31.1 11.1L22 2v6.14C14.11 9.12 8 15.84 8 24s6.11 14.88 14 15.86v-4.04c-5.67-.95-10-5.88-10-11.82s4.33-10.87 10-11.82V20l9.1-8.9zM39.86 22c-.34-2.78-1.45-5.46-3.25-7.78l-2.83 2.83c1.07 1.51 1.75 3.2 2.04 4.95h4.04zM26 35.81v4.05c2.78-.34 5.48-1.42 7.8-3.22l-2.87-2.87c-1.5 1.06-3.18 1.74-4.93 2.04zm7.78-4.86l2.83 2.83c1.8-2.32 2.91-5 3.25-7.78h-4.04c-.29 1.75-.97 3.44-2.04 4.95z"/>
	</svg>
	<svg x="0" y="144">
		<path d="M6 34.5V42h7.5l22.13-22.13-7.5-7.5L6 34.5zm35.41-20.41c.78-.78.78-2.05 0-2.83l-4.67-4.67c-.78-.78-2.05-.78-2.83 0l-3.66 3.66 7.5 7.5 3.66-3.66z"/>
	</svg>
	<svg x="48" y="144">
		<path d="M12 38c0 2.21 1.79 4 4 4h16c2.21 0 4-1.79 4-4V14H12v24zM38 8h-7l-2-2H19l-2 2h-7v4h28V8z"/>
	</svg>
	<svg x="96" y="144">
		<path d="M14 20l10 10 10-10z"/>
	</svg>
	<svg x="0" y="192">
		<path d="M38.86 25.95c.08-.64.14-1.29.14-1.95s-.06-1.31-.14-1.95l4.23-3.31c.38-.3.49-.84.24-1.28l-4-6.93c-.25-.43-.77-.61-1.22-.43l-4.98 2.01c-1.03-.79-2.16-1.46-3.38-1.97L29 4.84c-.09-.47-.5-.84-1-.84h-8c-.5 0-.91.37-.99.84l-.75 5.3c-1.22.51-2.35 1.17-3.38 1.97L9.9 10.1c-.45-.17-.97 0-1.22.43l-4 6.93c-.25.43-.14.97.24 1.28l4.22 3.31C9.06 22.69 9 23.34 9 24s.06 1.31.14 1.95l-4.22 3.31c-.38.3-.49.84-.24 1.28l4 6.93c.25.43.77.61 1.22.43l4.98-2.01c1.03.79 2.16 1.46 3.38 1.97l.75 5.3c.08.47.49.84.99.84h8c.5 0 .91-.37.99-.84l.75-5.3c1.22-.51 2.35-1.17 3.38-1.97l4.98 2.01c.45.17.97 0 1.22-.43l4-6.93c.25-.43.14-.97-.24-1.28l-4.22-3.31zM24 31c-3.87 0-7-3.13-7-7s3.13-7 7-7 7 3.13 7 7-3.13 7-7 7z"/>
	</svg>
	<svg x="48" y="192">
		<path d="M28 4H12C9.79 4 8.02 5.79 8.02 8L8 40c0 2.21 1.77 4 3.98 4H36c2.21 0 4-1.79 4-4V16L28 4zm4 32H16v-4h16v4zm0-8H16v-4h16v4zm-6-10V7l11 11H26z"/>
	</svg>
	<svg x="96" y="192">
		<path d="M18 32.34L9.66 24l-2.83 2.83L18 38l24-24-2.83-2.83z"/>
	</svg>
	<svg x="0" y="240">
		<path d="M8 12H4v28c0 2.21 1.79 4 4 4h28v-4H8V12zm32-8H16c-2.21 0-4 1.79-4 4v24c0 2.21 1.79 4 4 4h24c2.21 0 4-1.79 4-4V8c0-2.21-1.79-4-4-4zm-2 18H18v-4h20v4zm-8 8H18v-4h12v4zm8-16H18v-4h20v4z"/>
	</svg>
	<svg x="48" y="240">
		<path d="M40 10H8c-2.21 0-3.98 1.79-3.98 4L4 34c0 2.21 1.79 4 4 4h32c2.21 0 4-1.79 4-4V14c0-2.21-1.79-4-4-4zm-18 6h4v4h-4v-4zm0 6h4v4h-4v-4zm-6-6h4v4h-4v-4zm0 6h4v4h-4v-4zm-2 4h-4v-4h4v4zm0-6h-4v-4h4v4zm18 14H16v-4h16v4zm0-8h-4v-4h4v4zm0-6h-4v-4h4v4zm6 6h-4v-4h4v4zm0-6h-4v-4h4v4z"/>
	</svg>
</svg>