<svg xmlns="http://www.w3.org/2000/svg" width="120" height="40" viewBox="0 0 31.75 10.583">
	<g transform="translate(0 -286.42)">
		<g fill="#008000">
			<circle cx="5.2998" cy="291.71" r="5.1131" stroke-width=".23713"/>
			<circle cx="12.048" cy="292.27" r="4.6005" stroke-width=".21336"/>
			<circle cx="16.45" cy="290.26" r="3.7076" stroke-width=".17194"/>
			<circle cx="21.212" cy="292.13" r="4.4682" stroke-width=".20722"/>
			<circle cx="27.168" cy="292.33" r="4.4186" stroke-width=".20492"/>
			<circle cx="16.319" cy="292.3" r="4.1293" stroke-width=".1915"/>
		</g>
		<path transform="matrix(.97177 0 0 .97177 .069911 286.74)" d="m16.414 0.83398v8.041h0.9707v-8.041zm-11.002 0.20703c-0.83716 0-1.5279 0.20573-2.0723 0.61914-0.54433 0.40997-0.81641 0.9378-0.81641 1.582 0 0.56155 0.16295 1.0177 0.49023 1.3691 0.33073 0.34795 0.8374 0.59359 1.5195 0.73828 0.33762 0.068902 0.65535 0.12709 0.95508 0.17188 0.30317 0.044786 0.58537 0.10102 0.84375 0.16992 0.34106 0.089573 0.5944 0.21503 0.75977 0.37695 0.16881 0.16192 0.25195 0.41479 0.25195 0.75586 0 0.39619-0.17641 0.71151-0.53125 0.94922-0.3514 0.23771-0.84462 0.35742-1.4785 0.35742-0.44786 0-0.92567-0.087972-1.4355-0.26367s-0.96031-0.42616-1.3496-0.75h-0.072266v1.2832c0.4582 0.20326 0.90864 0.35563 1.3496 0.45898 0.44442 0.10335 0.94339 0.1543 1.498 0.1543 0.51676 0 0.95709-0.061523 1.3223-0.18555 0.36863-0.12402 0.69119-0.29514 0.9668-0.51562 0.25149-0.20326 0.44618-0.45131 0.58398-0.74414 0.14125-0.29283 0.21094-0.5909 0.21094-0.89062 0-0.55122-0.14421-0.97854-0.43359-1.2852-0.28939-0.30661-0.71913-0.53592-1.291-0.6875-0.2825-0.072347-0.62864-0.14399-1.0352-0.21289s-0.71897-0.12755-0.93945-0.17578c-0.41686-0.096463-0.70768-0.23538-0.87305-0.41797s-0.24805-0.43351-0.24805-0.75391c0-0.35829 0.16536-0.65153 0.49609-0.87891 0.33417-0.22738 0.7745-0.3418 1.3223-0.3418 0.49954 0 0.98747 0.082682 1.4629 0.24805 0.47887 0.16192 0.86537 0.36719 1.1582 0.61523h0.072266v-1.209c-0.34796-0.15158-0.74791-0.27946-1.1992-0.38281-0.45131-0.10335-0.9474-0.1543-1.4883-0.1543zm6.8203 1.9023c-0.81649 0-1.465 0.27254-1.9473 0.82031-0.47887 0.54433-0.71875 1.288-0.71875 2.2285s0.23988 1.6822 0.71875 2.2266c0.48231 0.54433 1.1308 0.81641 1.9473 0.81641 0.8096 0 1.4552-0.27208 1.9375-0.81641 0.48231-0.54433 0.72461-1.2861 0.72461-2.2266s-0.2423-1.6842-0.72461-2.2285c-0.48231-0.54777-1.1279-0.82031-1.9375-0.82031zm15.664 0c-0.8406 0-1.5203 0.27542-2.0371 0.83008-0.51332 0.55466-0.76953 1.3041-0.76953 2.248 0 0.95429 0.2692 1.6927 0.80664 2.2129 0.53744 0.51676 1.2845 0.77539 2.2422 0.77539 0.37552 0 0.73315-0.047607 1.0742-0.14062 0.34106-0.093018 0.67662-0.2079 1.0039-0.3457v-1.0586h-0.05273c-0.16881 0.15158-0.45194 0.30637-0.85157 0.46484-0.39619 0.15503-0.79085 0.23242-1.1836 0.23242-0.29628 0-0.56836-0.042318-0.81641-0.125-0.2446-0.082682-0.45757-0.20573-0.63672-0.37109-0.18604-0.16881-0.33266-0.38466-0.43945-0.64648-0.1068-0.26527-0.16016-0.57484-0.16016-0.92969h4.2539v-0.52734c0-0.83716-0.21102-1.4827-0.63477-1.9375-0.4203-0.45475-1.0202-0.68164-1.7988-0.68164zm-9.2188 0.16016 2.3203 5.7715h0.97656l2.3359-5.7715h-1.0195l-1.7715 4.5938-1.7891-4.5938zm9.166 0.64062c0.51676 0 0.90085 0.13892 1.1523 0.41797 0.25494 0.27905 0.38523 0.67372 0.38867 1.1836h-3.3086c0.041341-0.45475 0.21682-0.83596 0.52344-1.1426 0.31006-0.30661 0.72393-0.45898 1.2441-0.45898zm-15.611 0.035156c0.52021 0 0.92787 0.18365 1.2207 0.54883 0.29283 0.36174 0.43945 0.91648 0.43945 1.6641 0 0.73036-0.14903 1.2803-0.44531 1.6523-0.29283 0.36863-0.69808 0.55273-1.2148 0.55273-0.52366 0-0.93178-0.18457-1.2246-0.55664-0.29283-0.37552-0.43945-0.92497-0.43945-1.6484 0-0.74759 0.14616-1.3023 0.43555-1.6641 0.29283-0.36518 0.70142-0.54883 1.2285-0.54883z" fill="#fff"/>
	</g>
</svg>